ply
format ascii 1.0
comment VCGLIB generated
element vertex 310
property float x
property float y
property float z
element face 624
property list uchar int vertex_indices
end_header
-0.010816 0.033287 -0.0575 
0 0.035 -0.0575 
0.010816 0.033287 -0.0575 
0.005069999 -0.0345 0.027849 
0 -0.035 -0.0575 
-0.010816 -0.03328701 -0.0575 
-0.020572 -0.028316 -0.0575 
0.008748 -0.034 0.040261 
0.005768003 -0.03408651 0.0281608 
-0.020572 0.028316 -0.0575 
0.008743001 -0.034 0.04016401 
0.005069999 -0.034197 0.027849 
0.008743001 -0.0345 0.04016401 
0.003157001 -0.0345 0.022722 
0.003568001 -0.0345 0.02280201 
0.020572 0.028316 -0.0575 
0.008748 -0.0345 0.040261 
-0.008579999 -0.0345 0.02748301 
0.028316 0.020572 -0.0575 
-0.008129999 -0.034 0.04152 
0.033287 0.010816 -0.0575 
0.035 0 -0.0575 
0.033287 -0.010816 -0.0575 
-0.008850001 -0.0345 0.02808001 
0.028316 -0.020572 -0.0575 
0.003568001 -0.0344349 0.02280201 
0.020572 -0.028316 -0.0575 
0.010816 -0.03328701 -0.0575 
0.008750001 -0.034 0.04036001 
-0.003403999 -0.0344609 0.02771 
0.004214002 -0.0345 0.02297201 
0.004830001 -0.0345 0.02318 
-0.003891999 -0.0343836 0.02786 
0.005407004 -0.0345 0.023423 
-0.003891999 -0.0345 0.02786 
-0.003403999 -0.0345 0.02771 
-0.010816 -0.03328701 0.0575 
0.008750001 -0.0345 0.04036001 
-0.020572 -0.028316 0.0575 
-0.003156999 -0.0345 0.0276475 
0.004214002 -0.03433261 0.02297201 
-0.028316 -0.020572 -0.0575 
-0.033287 -0.010816 -0.0575 
-0.035 0 -0.0575 
-0.033287 0.010816 -0.0575 
-0.028316 0.020572 -0.0575 
0.01023 -0.034 0.04152 
0.01023 -0.0345 0.04152 
0.004830001 -0.034235 0.02318 
-0.005774001 -0.0340855 0.024242 
0 0.035 0.0575 
-0.010816 0.033287 0.0575 
-0.005774001 -0.0345 0.024242 
0.010816 0.033287 0.0575 
-0.006016899 -0.0340471 0.02442 
0.007831002 -0.034 0.039003 
0.005407004 -0.0341437 0.023423 
-0.005249999 -0.03416851 0.023915 
-0.005249999 -0.0345 0.023915 
0.007831002 -0.0345 0.039003 
0.01023 -0.0345 0.03234 
0.01023 -0.034 0.03234 
0.005768003 -0.03408651 0.0236052 
-0.004694 -0.0342566 0.023622 
0.007950002 -0.034 0.03904 
-0.004694 -0.0345 0.023622 
0.008750001 -0.034 0.04152 
0.007950002 -0.0345 0.03904 
0.035 0 0.0575 
0.033287 0.010816 0.0575 
0.028316 0.020572 0.0575 
0.020572 0.028316 0.0575 
-0.004107999 -0.03434941 0.023364 
0.008053003 -0.034 0.039076 
-0.004107999 -0.0345 0.023364 
-0.020572 0.028316 0.0575 
0.008053003 -0.0345 0.039076 
0.008690001 -0.034 0.03980001 
0 -0.035 0.0575 
0.003157001 -0.0345 0.02737371 
0.003157001 -0.0345 0.03454 
0.010816 -0.03328701 0.0575 
0.003157001 -0.0345 0.03892 
0.020572 -0.028316 0.0575 
-0.003489999 -0.03444731 0.02314 
0.008148002 -0.034 0.039118 
0.028316 -0.020572 0.0575 
-0.003489999 -0.0345 0.02314 
0.033287 -0.010816 0.0575 
0.008148002 -0.0345 0.039118 
0.008708002 -0.034 0.03988801 
-0.033287 -0.010816 0.0575 
-0.003156999 -0.0345 0.0230377 
-0.028316 -0.020572 0.0575 
-0.028316 0.020572 0.0575 
-0.033287 0.010816 0.0575 
-0.035 0 0.0575 
0.008723 -0.034 0.039978 
-0.006517 -0.034 0.038923 
0.008735003 -0.034 0.04007 
-0.008129999 -0.0345 0.04152 
-0.006517 -0.0345 0.038923 
-0.00633 -0.034 0.03892 
-0.003156999 -0.0345 0.03892 
-0.003156999 -0.0345 0.03454 
-0.00633 -0.0345 0.03892 
0.008750001 -0.0345 0.04152 
-0.006314101 -0.034 0.03892 
0.006314101 -0.034 0.03892 
-0.008129999 -0.034 0.04036001 
0.006314101 -0.034 0.03454 
0.006314101 -0.034 0.02848491 
0.008690001 -0.0345 0.03980001 
0.006314101 -0.034 0.02391471 
-0.008129999 -0.0345 0.04036001 
-0.008128 -0.034 0.040255 
0.008708002 -0.0345 0.03988801 
-0.006314101 -0.034 0.02464351 
-0.008128 -0.0345 0.040255 
-0.008122999 -0.0345 0.040153 
-0.008122999 -0.034 0.040153 
0.008723 -0.0345 0.039978 
-0.006314101 -0.034 0.0292276 
-0.006314101 -0.034 0.03454 
-0.008114999 -0.034 0.040055 
0.008735003 -0.0345 0.04007 
-0.008114999 -0.0345 0.040055 
-0.008103 -0.034 0.03996 
0.005768003 -0.03408651 0.03892 
-0.008087998 -0.034 0.039868 
-0.008103 -0.0345 0.03996 
0.005768003 -0.03408651 0.03454 
-0.00807 -0.034 0.03978 
-0.008087998 -0.0345 0.039868 
-0.00807 -0.0345 0.03978 
-0.00749 -0.034 0.039118 
0.005887004 -0.0340676 0.028214 
-0.007385001 -0.034 0.039076 
-0.00749 -0.0345 0.039118 
-0.006277001 -0.0340059 0.02919101 
-0.005948 -0.034058 0.02891601 
-0.005589999 -0.0341147 0.02866 
-0.005348301 -0.0341529 0.028516 
-0.007270001 -0.034 0.03904 
0.008235002 -0.034 0.039165 
0.005951999 -0.0340573 0.023698 
0.008235002 -0.0345 0.039165 
-0.007385001 -0.0345 0.039076 
0.008314 -0.034 0.039218 
0.008314 -0.0345 0.039218 
-0.007270001 -0.0345 0.03904 
0.008386003 -0.034 0.03927601 
0.008386003 -0.0345 0.03927601 
-0.007143999 -0.034 0.039003 
-0.006268 -0.0340073 0.024604 
0.008450003 -0.034 0.03934 
-0.007143999 -0.0345 0.039003 
0.008450003 -0.0345 0.03934 
0.008507 -0.034 0.039408 
0.008507 -0.0345 0.039408 
-0.007006001 -0.034 0.038973 
-0.007006001 -0.0345 0.038973 
0.008557001 -0.034 0.03948 
0.008557001 -0.0345 0.03948 
-0.006855 -0.034 0.03895 
0.008599998 -0.034 0.039555 
0.008599998 -0.0345 0.039555 
-0.006855 -0.0345 0.03895 
0.008637002 -0.034 0.03963301 
0.004140001 -0.0343443 0.02756501 
0.008637002 -0.0345 0.03963301 
-0.005204 -0.03417579 0.02843 
-0.004791999 -0.0342411 0.02822 
-0.006692 -0.034 0.03893301 
-0.004354998 -0.03431031 0.02803 
-0.006692 -0.0345 0.03893301 
0.008667002 -0.034 0.039715 
0.008667002 -0.0345 0.039715 
0.007050002 -0.034 0.03892 
-0.008045999 -0.0345 0.039696 
0.007050002 -0.0345 0.03892 
-0.008045999 -0.034 0.039696 
0.007230999 -0.0345 0.038923 
-0.008013999 -0.0345 0.039616 
-0.008013999 -0.034 0.039616 
0.007398998 -0.0345 0.03893301 
0.007230999 -0.034 0.038923 
-0.007975001 -0.0345 0.03954 
-0.007975001 -0.034 0.03954 
0.007555002 -0.0345 0.03895 
0.007398998 -0.034 0.03893301 
0.007699003 -0.0345 0.038973 
-0.007927999 -0.0345 0.03946901 
-0.007927999 -0.034 0.03946901 
0.007555002 -0.034 0.03895 
0.007699003 -0.034 0.038973 
-0.007745001 -0.034 0.03927601 
-0.007809998 -0.034 0.03934 
-0.007809998 -0.0345 0.03934 
-0.007745001 -0.0345 0.03927601 
0.00853 -0.0345 0.03296 
-0.007872999 -0.0345 0.039402 
-0.007872999 -0.034 0.039402 
0.00853 -0.0345 0.03454 
0.00853 -0.034 0.03296 
0.00853 -0.034 0.03454 
0.006589999 -0.0345 0.02866 
-0.00767 -0.034 0.039218 
-0.00767 -0.0345 0.039218 
0.007182999 -0.0345 0.029185 
0.009799002 -0.034 0.02884 
0.009799002 -0.0345 0.02884 
0.006589999 -0.034 0.02866 
-0.007584998 -0.034 0.039165 
0.007668002 -0.0345 0.02978701 
-0.007584998 -0.0345 0.039165 
0.009954 -0.034 0.029487 
0.009954 -0.0345 0.029487 
0.007182999 -0.034 0.029185 
0.008045001 -0.0345 0.030465 
0.010075 -0.034 0.03016001 
0.010075 -0.0345 0.03016001 
0.007668002 -0.034 0.02978701 
0.008314 -0.0345 0.03122001 
0.010161 -0.034 0.03086 
0.010161 -0.0345 0.03086 
0.008045001 -0.034 0.030465 
0.008476002 -0.0345 0.03205201 
-0.00787 -0.0345 0.03454 
-0.00787 -0.034 0.03454 
0.010213 -0.034 0.031587 
0.010213 -0.0345 0.031587 
0.008314 -0.034 0.03122001 
0.008476002 -0.034 0.03205201 
-0.00787 -0.0345 0.03298001 
-0.00787 -0.034 0.03298001 
-0.00959 -0.0345 0.04152 
-0.00959 -0.034 0.04152 
0.005887004 -0.0345 0.028214 
-0.00959 -0.034 0.03234 
-0.00959 -0.0345 0.03234 
-0.006277001 -0.0345 0.02919101 
-0.005948 -0.0345 0.02891601 
0.009610003 -0.034 0.02822 
0.009393001 -0.034 0.027628 
0.009143004 -0.034 0.027067 
0.008860001 -0.034 0.02653501 
0.008543001 -0.034 0.026033 
0.008193003 -0.034 0.025562 
0.007810002 -0.034 0.02512001 
-0.005589999 -0.0345 0.02866 
0.007394003 -0.034 0.02471601 
0.007394003 -0.0345 0.02471601 
0.007810002 -0.0345 0.02512001 
0.008193003 -0.0345 0.025562 
0.008543001 -0.0345 0.026033 
0.008860001 -0.0345 0.02653501 
0.009143004 -0.0345 0.027067 
0.009393001 -0.0345 0.027628 
0.009610003 -0.0345 0.02822 
0.006945999 -0.034 0.024344 
0.006465001 -0.034 0.024005 
-0.009405 -0.034 0.030065 
-0.009569 -0.0345 0.03154901 
-0.009507999 -0.0345 0.030791 
-0.009405 -0.0345 0.030065 
-0.009260999 -0.0345 0.029371 
-0.009075999 -0.0345 0.02870901 
0.005951999 -0.0345 0.023698 
0.006465001 -0.0345 0.024005 
0.006945999 -0.0345 0.024344 
-0.009260999 -0.034 0.029371 
-0.009075999 -0.034 0.02870901 
0.004140001 -0.0345 0.02756501 
-0.007854 -0.0345 0.032516 
-0.007854 -0.034 0.032516 
-0.009507999 -0.034 0.030791 
-0.009569 -0.034 0.03154901 
-0.007805999 -0.0345 0.03207101 
-0.007805999 -0.034 0.03207101 
-0.007725 -0.0345 0.031645 
-0.007725 -0.034 0.031645 
-0.007611999 -0.0345 0.031238 
-0.007611999 -0.034 0.031238 
-0.007466998 -0.0345 0.030849 
-0.007466998 -0.034 0.030849 
-0.00729 -0.0345 0.03048001 
-0.00729 -0.034 0.03048001 
-0.007082 -0.0345 0.030129 
-0.007082 -0.034 0.030129 
-0.006843001 -0.0345 0.029798 
-0.006843001 -0.034 0.029798 
-0.006575001 -0.0345 0.02948501 
-0.006575001 -0.034 0.02948501 
-0.008850001 -0.034 0.02808001 
-0.008579999 -0.034 0.02748301 
-0.008277001 -0.034 0.02692 
-0.008277001 -0.0345 0.02692 
-0.00673 -0.034 0.025 
-0.007167 -0.034 0.02543001 
-0.00757 -0.034 0.025893 
-0.00794 -0.034 0.02639 
-0.00794 -0.0345 0.02639 
-0.00757 -0.0345 0.025893 
-0.007167 -0.0345 0.02543001 
-0.00673 -0.0345 0.025 
-0.006268 -0.0345 0.024604 
-0.005204 -0.0345 0.02843 
-0.004791999 -0.0345 0.02822 
-0.004354998 -0.0345 0.02803 
3 2 4 1 
3 6 9 5 
3 4 5 9 
3 4 9 0 
3 0 1 4 
3 4 2 15 
3 4 15 18 
3 4 18 20 
3 4 20 21 
3 4 21 22 
3 4 22 24 
3 4 24 26 
3 4 26 27 
3 42 43 41 
3 6 41 43 
3 6 43 44 
3 6 44 45 
3 6 45 9 
3 51 68 50 
3 68 69 70 
3 68 70 71 
3 68 71 53 
3 53 50 68 
3 68 51 75 
3 75 94 68 
3 68 93 38 
3 68 38 36 
3 68 36 78 
3 68 78 81 
3 68 81 83 
3 68 83 86 
3 68 86 88 
3 4 13 78 
3 82 78 80 
3 80 78 79 
3 79 78 13 
3 93 68 91 
3 94 95 68 
3 96 68 95 
3 91 68 96 
3 5 117 36 
3 103 104 78 
3 104 39 78 
3 39 92 78 
3 4 78 92 
3 84 5 92 
3 57 5 63 
3 63 5 72 
3 110 111 81 
3 113 81 111 
3 108 110 81 
3 82 128 78 
3 81 78 128 
3 122 36 117 
3 123 36 122 
3 107 36 123 
3 78 36 107 
3 108 81 128 
3 78 107 103 
3 79 169 80 
3 104 123 122 
3 110 131 111 
3 104 122 139 
3 104 139 140 
3 104 140 141 
3 104 141 142 
3 142 171 104 
3 154 117 5 
3 62 56 27 
3 56 48 27 
3 25 13 27 
3 169 11 80 
3 131 80 111 
3 8 136 80 
3 136 111 80 
3 11 8 80 
3 171 172 104 
3 172 174 104 
3 104 174 32 
3 104 32 29 
3 104 29 39 
3 145 62 27 
3 154 5 54 
3 40 25 27 
3 4 27 13 
3 49 54 5 
3 4 92 5 
3 48 40 27 
3 22 88 86 
3 88 22 68 
3 21 68 22 
3 20 69 68 
3 20 68 21 
3 70 69 20 
3 51 9 75 
3 57 49 5 
3 72 5 84 
3 75 9 94 
3 96 42 91 
3 42 93 91 
3 50 53 1 
3 2 1 53 
3 51 50 0 
3 1 0 50 
3 81 113 27 
3 113 145 27 
3 83 81 26 
3 27 26 81 
3 86 83 24 
3 26 24 83 
3 24 22 86 
3 18 70 20 
3 70 18 71 
3 15 71 18 
3 53 71 2 
3 15 2 71 
3 51 0 9 
3 5 36 38 
3 5 38 6 
3 94 9 45 
3 45 44 95 
3 45 95 94 
3 96 95 43 
3 44 43 95 
3 96 43 42 
3 42 41 93 
3 38 93 6 
3 41 6 93 
3 14 30 79 
3 7 10 12 
3 7 12 16 
3 8 11 3 
3 294 17 23 
3 29 32 34 
3 29 34 35 
3 25 14 13 
3 28 7 16 
3 28 16 37 
3 39 29 35 
3 3 273 269 
3 268 269 273 
3 14 25 30 
3 40 30 25 
3 30 40 31 
3 48 31 40 
3 49 52 54 
3 46 47 61 
3 60 61 47 
3 31 48 33 
3 56 33 48 
3 58 52 57 
3 49 57 52 
3 33 56 62 
3 65 58 63 
3 57 63 58 
3 46 28 66 
3 64 55 59 
3 64 59 67 
3 61 77 46 
3 74 65 72 
3 63 72 65 
3 73 64 67 
3 73 67 76 
3 87 74 84 
3 72 84 74 
3 85 73 76 
3 85 76 89 
3 90 46 77 
3 84 92 87 
3 97 46 90 
3 99 46 97 
3 100 236 114 
3 10 46 99 
3 7 46 10 
3 105 101 228 
3 28 46 7 
3 107 123 102 
3 106 37 47 
3 228 104 105 
3 115 237 109 
3 19 109 237 
3 120 237 115 
3 115 118 119 
3 115 119 120 
3 64 73 205 
3 60 47 112 
3 124 237 120 
3 73 85 205 
3 120 119 126 
3 120 126 124 
3 116 112 47 
3 121 116 47 
3 129 237 127 
3 124 126 130 
3 124 130 127 
3 12 125 47 
3 114 236 118 
3 16 12 47 
3 37 16 47 
3 127 130 133 
3 127 133 129 
3 132 181 239 
3 127 237 124 
3 119 118 236 
3 129 133 134 
3 129 134 132 
3 130 126 236 
3 126 119 236 
3 135 215 138 
3 85 144 205 
3 59 203 67 
3 144 148 205 
3 144 85 89 
3 144 89 146 
3 137 135 138 
3 137 138 147 
3 67 203 76 
3 148 151 205 
3 148 144 146 
3 148 146 149 
3 143 137 147 
3 143 147 150 
3 151 155 205 
3 151 148 149 
3 151 149 152 
3 76 203 89 
3 155 158 205 
3 153 143 150 
3 153 150 156 
3 155 151 152 
3 155 152 157 
3 149 203 152 
3 160 153 156 
3 160 156 161 
3 158 155 157 
3 158 157 159 
3 162 61 158 
3 61 205 158 
3 165 61 162 
3 164 160 161 
3 164 161 167 
3 157 203 159 
3 152 203 157 
3 162 158 159 
3 162 159 163 
3 168 61 165 
3 163 159 60 
3 165 162 163 
3 165 163 166 
3 173 164 167 
3 173 167 175 
3 176 61 168 
3 166 60 170 
3 168 165 166 
3 168 166 170 
3 175 101 173 
3 98 173 101 
3 77 61 176 
3 125 121 47 
3 112 177 60 
3 170 60 177 
3 176 168 170 
3 176 170 177 
3 134 179 181 
3 134 181 132 
3 181 179 183 
3 181 183 184 
3 177 112 176 
3 77 176 112 
3 184 183 187 
3 184 187 188 
3 153 229 143 
3 128 180 108 
3 178 108 180 
3 182 203 185 
3 190 194 205 
3 188 187 192 
3 188 192 193 
3 186 178 180 
3 186 180 182 
3 190 186 182 
3 190 182 185 
3 195 55 205 
3 194 195 205 
3 164 229 160 
3 160 229 153 
3 191 203 59 
3 194 190 185 
3 194 185 189 
3 55 64 205 
3 190 205 186 
3 195 194 189 
3 195 189 191 
3 196 197 198 
3 196 198 199 
3 166 163 60 
3 146 203 149 
3 89 203 146 
3 189 203 191 
3 185 203 189 
3 180 203 182 
3 191 59 195 
3 55 195 59 
3 123 229 173 
3 98 123 173 
3 102 123 98 
3 202 193 201 
3 192 201 193 
3 110 108 178 
3 178 186 110 
3 227 60 200 
3 203 200 60 
3 204 227 200 
3 181 184 239 
3 197 202 201 
3 197 201 198 
3 205 204 200 
3 205 200 203 
3 204 205 61 
3 184 188 239 
3 131 110 203 
3 205 203 110 
3 110 186 205 
3 207 196 199 
3 207 199 208 
3 188 193 239 
3 229 239 193 
3 213 207 208 
3 213 208 215 
3 206 257 209 
3 216 217 211 
3 216 211 210 
3 220 221 217 
3 220 217 216 
3 210 243 222 
3 244 245 218 
3 135 213 215 
3 214 209 259 
3 211 217 214 
3 224 225 221 
3 224 221 220 
3 202 197 229 
3 129 132 237 
3 123 104 228 
3 123 228 229 
3 230 231 225 
3 230 225 224 
3 226 216 222 
3 219 214 217 
3 217 221 219 
3 60 231 230 
3 60 230 61 
3 233 230 232 
3 197 196 229 
3 229 228 234 
3 229 234 235 
3 212 111 206 
3 239 240 237 
3 236 237 240 
3 218 212 206 
3 218 206 209 
3 223 219 221 
3 221 225 223 
3 225 231 223 
3 227 223 231 
3 227 231 60 
3 216 226 220 
3 224 220 232 
3 224 232 230 
3 210 222 216 
3 61 230 233 
3 61 233 204 
3 213 229 207 
3 222 218 209 
3 222 209 214 
3 273 79 31 
3 292 241 122 
3 139 122 241 
3 226 222 214 
3 226 214 219 
3 140 139 241 
3 140 241 242 
3 196 207 229 
3 229 213 135 
3 137 229 135 
3 137 143 229 
3 232 226 219 
3 232 219 223 
3 141 140 242 
3 141 242 250 
3 233 232 223 
3 233 223 227 
3 193 202 229 
3 248 111 247 
3 246 247 212 
3 245 246 212 
3 212 218 245 
3 243 244 218 
3 249 251 111 
3 251 260 111 
3 249 111 248 
3 212 247 111 
3 218 222 243 
3 232 220 226 
3 142 141 250 
3 204 233 227 
3 254 255 238 
3 206 238 255 
3 252 253 3 
3 270 252 3 
3 256 206 255 
3 257 206 256 
3 258 209 257 
3 211 214 259 
3 258 259 209 
3 269 270 3 
3 31 33 273 
3 33 268 273 
3 251 252 270 
3 134 133 236 
3 133 130 236 
3 238 3 253 
3 253 254 238 
3 249 253 252 
3 249 252 251 
3 267 288 266 
3 266 286 265 
3 265 282 264 
3 284 265 286 
3 282 265 284 
3 264 280 263 
3 263 278 240 
3 248 254 253 
3 248 253 249 
3 164 173 229 
3 60 159 203 
3 82 80 180 
3 203 180 80 
3 247 255 254 
3 247 254 248 
3 308 307 304 
3 303 304 307 
3 235 239 229 
3 246 256 255 
3 246 255 247 
3 30 31 79 
3 13 14 79 
3 261 111 260 
3 113 111 261 
3 245 257 256 
3 245 256 246 
3 66 106 47 
3 66 47 46 
3 237 132 239 
3 275 235 274 
3 234 274 235 
3 279 239 275 
3 244 258 257 
3 244 257 245 
3 66 28 37 
3 66 37 106 
3 239 279 277 
3 243 259 258 
3 243 258 244 
3 19 237 100 
3 236 100 237 
3 275 274 278 
3 275 278 279 
3 240 239 277 
3 240 277 263 
3 243 210 259 
3 211 259 210 
3 277 276 264 
3 277 264 263 
3 90 77 112 
3 90 112 116 
3 279 278 280 
3 279 280 281 
3 262 265 276 
3 265 264 276 
3 3 238 8 
3 136 8 238 
3 97 90 116 
3 97 116 121 
3 266 265 271 
3 262 271 265 
3 99 97 121 
3 99 121 125 
3 266 271 267 
3 272 267 271 
3 281 280 282 
3 281 282 283 
3 206 111 238 
3 136 238 111 
3 23 267 272 
3 10 99 125 
3 10 125 12 
3 33 62 268 
3 145 268 62 
3 283 282 284 
3 283 284 285 
3 275 239 235 
3 145 113 268 
3 269 268 113 
3 261 269 113 
3 138 215 228 
3 285 284 286 
3 285 286 287 
3 260 270 269 
3 260 269 261 
3 270 260 251 
3 128 82 180 
3 287 286 288 
3 287 288 289 
3 203 80 131 
3 283 276 281 
3 169 79 273 
3 289 288 290 
3 289 290 291 
3 273 3 169 
3 11 169 3 
3 285 262 283 
3 167 161 228 
3 175 167 228 
3 101 175 228 
3 287 262 285 
3 291 290 292 
3 291 292 293 
3 289 271 287 
3 291 272 289 
3 281 277 279 
3 122 293 292 
3 179 134 240 
3 236 240 134 
3 294 23 272 
3 117 298 122 
3 122 295 293 
3 293 294 291 
3 271 289 272 
3 262 287 271 
3 276 283 262 
3 277 281 276 
3 294 293 295 
3 17 294 295 
3 183 179 240 
3 187 183 240 
3 300 122 299 
3 296 122 301 
3 295 122 296 
3 301 122 300 
3 298 299 122 
3 272 291 294 
3 295 296 297 
3 295 297 17 
3 192 187 240 
3 100 114 19 
3 296 301 302 
3 296 302 297 
3 102 98 101 
3 102 101 105 
3 201 192 228 
3 240 228 192 
3 102 105 107 
3 103 107 105 
3 301 300 303 
3 301 303 302 
3 114 109 19 
3 199 198 228 
3 198 201 228 
3 300 299 304 
3 300 304 303 
3 109 114 118 
3 109 118 115 
3 298 305 304 
3 298 304 299 
3 161 156 228 
3 147 138 228 
3 215 208 228 
3 208 199 228 
3 305 117 306 
3 298 117 305 
3 154 306 117 
3 156 150 228 
3 150 147 228 
3 154 54 306 
3 52 306 54 
3 103 105 104 
3 250 307 142 
3 171 142 307 
3 172 171 307 
3 172 307 308 
3 228 240 234 
3 174 172 308 
3 174 308 309 
3 32 174 309 
3 32 309 34 
3 23 17 292 
3 241 292 17 
3 234 240 274 
3 274 240 278 
3 280 264 282 
3 278 263 280 
3 286 266 288 
3 290 288 267 
3 302 303 250 
3 292 290 23 
3 267 23 290 
3 17 297 241 
3 242 241 297 
3 250 242 302 
3 297 302 242 
3 306 52 309 
3 305 306 309 
3 34 309 52 
3 52 58 34 
3 35 34 58 
3 309 308 305 
3 304 305 308 
3 307 250 303 
3 39 35 65 
3 74 39 65 
3 87 39 74 
3 92 39 87 
3 58 65 35 
